PathFileType	4	(X/Y/Z)	G:\Shared drives\HIT\Data\HapticPilot\Subject1\Edited\RHJC1.trc
DataRate	CameraRate	NumFrames	NumMarkers	Units	OrigDataRate	OrigDataStartFrame	OrigNumFrames
50.00	50.00	       4	38	mm	50.00	500	       571
Frame#	Time	r_knee			r_shank(antsup)			r_ankle			r_calc			r_5meta			r_toe			L_knee			L_shank(ant_sup)			L_ankle			L_calc			L_5meta			L_toe			r_mknee			r_mankle			L_mknee			L_mankle			r_sh2			r_sh3			r_sh4			L_sh2			L_sh3			r_thigh1			r_thigh2			r_thigh3			r_thigh4			r_thigh5			L_thigh1			L_thigh2			L_thigh3			L_thigh4			r.ASIS			r.PSIS			L.ASIS			L.PSIS			C7			R_Shoulder			L_Shoulder			Sternum			
		X1	Y1	Z1	X2	Y2	Z2	X3	Y3	Z3	X4	Y4	Z4	X5	Y5	Z5	X6	Y6	Z6	X7	Y7	Z7	X8	Y8	Z8	X9	Y9	Z9	X10	Y10	Z10	X11	Y11	Z11	X12	Y12	Z12	X13	Y13	Z13	X14	Y14	Z14	X15	Y15	Z15	X16	Y16	Z16	X17	Y17	Z17	X18	Y18	Z18	X19	Y19	Z19	X20	Y20	Z20	X21	Y21	Z21	X22	Y22	Z22	X23	Y23	Z23	X24	Y24	Z24	X25	Y25	Z25	X26	Y26	Z26	X27	Y27	Z27	X28	Y28	Z28	X29	Y29	Z29	X30	Y30	Z30	X31	Y31	Z31	X32	Y32	Z32	X33	Y33	Z33	X34	Y34	Z34	X35	Y35	Z35	X36	Y36	Z36	X37	Y37	Z37	X38	Y38	Z38	

500	9.980	538.76208	451.49106	741.85596	505.07458	413.15430	666.66119	239.94514	295.10126	408.08240	139.01601	336.72922	384.66187	307.12933	227.54523	312.79581	359.66263	290.32568	306.36041	749.56311	869.79901	564.50610	780.42987	854.54791	447.65195	697.34521	811.51031	109.06480	621.17102	755.75763	72.51165	814.64594	848.67474	41.82960	861.61279	791.97394	68.87494	531.06836	560.14124	670.91400	255.01772	383.43619	372.24911	763.70331	745.58337	568.80090	726.31134	721.83893	122.95271	432.06732	368.72110	583.17517	444.10693	423.55905	710.40405	367.59949	378.01233	635.84241	693.63129	880.02216	463.23819	682.41766	864.48517	342.74554	733.34399	545.14026	990.12317	688.05005	504.71442	892.37958	631.29529	492.70392	886.60425	627.60150	561.22339	1027.74341	585.32050	527.20813	923.08313	821.04437	915.60724	832.72180	829.91382	896.18555	695.92236	706.39545	935.55798	823.23395	718.70532	903.53632	692.22034	834.86969	653.66418	1133.72644	664.49982	773.92590	1181.54041	848.43109	902.50861	1066.61133	671.08685	851.46820	1155.54541	825.39166	859.98053	1625.19971	867.02405	700.97595	1606.05945	876.00293	1038.62646	1555.74976	942.95624	854.03204	1517.49011	
501	10.000	532.22058	460.75937	738.03479	496.84836	424.97549	662.59937	226.29912	314.47040	405.69772	124.61069	357.20477	386.13046	290.84805	249.48019	306.73047	343.80301	311.98004	301.07373	748.99274	870.33112	564.56134	779.98273	854.95551	447.73755	697.26819	811.78973	109.02819	621.13617	755.88995	72.44035	814.64258	848.69037	41.71668	861.52502	792.10272	68.82495	524.26184	571.05664	670.05988	241.35043	403.72891	372.24542	763.22754	746.42657	568.69238	726.12640	722.21240	122.96151	422.20605	382.77594	579.19763	436.94852	434.09052	707.63251	358.89371	390.67004	633.35284	693.30450	880.64722	463.21445	682.21936	865.18396	342.73856	731.09637	546.85626	985.88043	684.27020	509.13721	887.86823	627.33167	497.67560	882.55884	625.94147	562.80469	1025.26318	581.89764	531.37573	919.91827	820.13971	916.54376	832.70630	829.01953	896.96582	695.86627	705.37354	936.14362	823.24811	717.63538	904.20251	692.19739	833.82080	653.35339	1130.93018	664.66339	772.82880	1181.24756	847.77490	902.76428	1066.36072	670.96826	850.70355	1155.70056	826.66876	858.57574	1624.74695	869.16089	699.91302	1604.91931	876.11127	1037.59814	1555.64209	943.75873	853.46088	1516.52063	
502	10.020	525.99799	470.15445	733.96875	489.29535	436.13696	658.19110	213.63350	333.46280	403.42331	111.96082	377.00815	387.02103	276.02213	271.23071	301.37903	329.01202	333.50351	296.56757	748.47321	870.76794	564.55865	779.54120	855.26874	447.70605	697.18115	811.99237	109.00292	621.10455	755.97156	72.44563	814.62799	848.59503	41.75462	861.52466	791.81915	68.83919	518.05682	581.89160	668.79877	228.23264	423.75134	372.17096	762.29041	746.82391	569.00903	725.91205	722.49811	122.95412	412.95642	396.67099	575.13293	430.15747	444.69025	704.44226	350.75412	403.30652	630.50153	692.89355	881.08911	463.14536	681.97675	865.64294	342.61252	729.00092	548.67212	981.22418	680.75739	513.53107	882.98834	623.53986	502.92670	878.06573	624.43274	564.43256	1022.17303	579.04535	535.76062	917.12909	819.24927	917.50244	832.44299	827.86426	897.75745	695.66418	704.51666	936.77472	823.16443	716.15735	904.65887	692.08649	834.09558	652.90900	1128.47302	664.59772	771.86346	1180.93994	846.99823	903.06250	1066.08472	670.72217	849.95160	1155.83801	827.66553	857.33850	1624.06030	871.22339	698.89404	1603.98840	876.11371	1036.67151	1555.37988	944.48566	852.97620	1515.46130	
503	10.040	520.48383	480.24149	729.28040	482.56927	447.94092	653.34497	202.53862	352.13065	400.87903	100.15035	396.06915	387.77979	262.89630	292.92856	296.07059	315.57236	355.46564	291.94159	747.65179	871.38196	564.48267	778.85651	855.77759	447.58142	697.12201	812.36169	108.94440	620.98029	756.07928	72.34559	814.68073	848.52844	41.83462	861.45990	791.70703	68.88910	511.52042	593.10388	667.57227	215.70404	443.62140	372.20877	761.31256	747.40253	568.95093	725.77014	722.73560	123.01039	404.53421	410.88275	570.58459	424.17737	455.07343	701.02527	343.44775	415.69366	627.43829	692.33844	881.71503	462.91672	681.83032	865.88458	342.02328	727.18182	550.85529	976.34857	677.12665	518.14398	877.72968	620.19330	508.40894	873.17041	623.02563	565.67188	1018.94879	576.21326	540.24518	913.86371	818.47162	918.29712	832.10333	826.86493	898.35486	695.38580	703.68054	937.03308	823.10309	715.45313	905.02386	691.87952	833.71924	652.59204	1125.74280	664.36908	770.65643	1180.62219	846.73132	903.19720	1065.90930	670.29669	849.10822	1156.01868	828.47510	856.22284	1623.34839	872.90393	698.17950	1602.88477	876.06067	1035.87573	1554.95386	945.02283	852.41052	1514.42126	
